<svg height="97" viewBox="0 0 477 97" width="477" xmlns="http://www.w3.org/2000/svg" xmlns:xlink="http://www.w3.org/1999/xlink"><defs><path id="a" d="m67.1766178 3.64269253 59.7915412 60.08522957h-25.328549l-34.4619954-34.6286523c-1.9479058-1.9573258-5.1137215-1.9649622-7.0710473-.0170564-.0036816.0036639-.0073575.0073335-.0110277.0110089l-34.6396955 34.6885236h-25.4558441l60.0954046-60.14623094c1.951796-1.95344666 5.1176206-1.95478486 7.0710672-.00298895.0033869.00338398.0067688.00677282.010146.01016652z"/><path id="b" d="m67.1766178 3.64269253 59.7915412 60.08522957h-25.328549l-34.4619954-34.6286523c-1.9479058-1.9573258-5.1137215-1.9649622-7.0710473-.0170564-.0036816.0036639-.0073575.0073335-.0110277.0110089l-34.6396955 34.6885236h-25.4558441l60.0954046-60.14623094c1.951796-1.95344666 5.1176206-1.95478486 7.0710672-.00298895.0033869.00338398.0067688.00677282.010146.01016652z"/><path id="c" d="m67.1766178 3.64269253 59.7915412 60.08522957h-25.328549l-34.4619954-34.6286523c-1.9479058-1.9573258-5.1137215-1.9649622-7.0710473-.0170564-.0036816.0036639-.0073575.0073335-.0110277.0110089l-34.6396955 34.6885236h-25.4558441l60.0954046-60.14623094c1.951796-1.95344666 5.1176206-1.95478486 7.0710672-.00298895.0033869.00338398.0067688.00677282.010146.01016652z"/><path id="d" d="m67.1751442 79.1040764 56.6022318-56.6022323c1.939415-1.9394149 1.954446-5.0791608.033689-7.0370554l-15.171455-15.4647887h-25.7838826l15.3408168 15.4712713c1.9358968 1.9523595 1.9322358 5.1014594-.0081952 7.0493124l-30.9964029 31.1149579c-1.9488908 1.956345-5.1147099 1.9623877-7.0710549.0134969-.0019812-.0019737-.0039608-.0039491-.0059387-.0059261l-31.1125812-31.0982221c-1.9530721-1.9521707-1.9538029-5.1179955-.0016322-7.0710676.003386-.0033875.0067769-.0067702.0101726-.010148l15.5456309-15.4636747h-25.8344128l-15.23571487 15.4474928c-1.92945161 1.9562712-1.91881046 5.1029152.0238281 7.0460919l56.59432307 56.6100021c1.9518613 1.9533814 5.1176862 1.9538199 7.070578.0014689.0001633-.0001632.0003265-.0003264.0000001-.0009793z"/><path id="e" d="m67.1751442 79.1040764 56.6022318-56.6022323c1.939415-1.9394149 1.954446-5.0791608.033689-7.0370554l-15.171455-15.4647887h-25.7838826l15.3408168 15.4712713c1.9358968 1.9523595 1.9322358 5.1014594-.0081952 7.0493124l-30.9964029 31.1149579c-1.9488908 1.956345-5.1147099 1.9623877-7.0710549.0134969-.0019812-.0019737-.0039608-.0039491-.0059387-.0059261l-31.1125812-31.0982221c-1.9530721-1.9521707-1.9538029-5.1179955-.0016322-7.0710676.003386-.0033875.0067769-.0067702.0101726-.010148l15.5456309-15.4636747h-25.8344128l-15.23571487 15.4474928c-1.92945161 1.9562712-1.91881046 5.1029152.0238281 7.0460919l56.59432307 56.6100021c1.9518613 1.9533814 5.1176862 1.9538199 7.070578.0014689.0001633-.0001632.0003265-.0003264.0000001-.0009793z"/><mask id="f" fill="#fff"><use fill="#fff" fill-rule="evenodd" xlink:href="#a"/></mask><mask id="g" fill="#fff"><use fill="#fff" fill-rule="evenodd" xlink:href="#b"/></mask><mask id="h" fill="#fff"><use fill="#fff" fill-rule="evenodd" xlink:href="#c"/></mask><mask id="i" fill="#fff"><use fill="#fff" fill-rule="evenodd" xlink:href="#d"/></mask><mask id="j" fill="#fff"><use fill="#fff" fill-rule="evenodd" xlink:href="#e"/></mask></defs><g fill="none" fill-rule="evenodd" transform="translate(.36039)"><path d="m443.630821 0-15.176587 15.4773182c-1.915138 1.9530878-1.905335 5.0826034.022 7.0236556l47.163376 47.4990262v-26.0863396l-21.57544-21.3440351c-1.963121-1.9420655-1.980189-5.1078443-.038124-7.070965.017602-.0177924.035337-.0354523.053203-.0529783l15.745908-15.445682z" fill="#3a86ff"/><g transform="translate(0 32.272078)"><use fill="#3a86ff" xlink:href="#a"/><path d="m63.6396103 0v31.7279221l37.9999997 32h28z" fill="#3c6" mask="url(#f)"/><path d="m63.6396103.08831175v31.63961035l-38.1837662 32.0538238h-25.4558441z" fill="#014d7e" mask="url(#f)"/></g><g transform="translate(339 32.272078)"><use fill="#3a86ff" xlink:href="#b"/><path d="m63.6396103 0v31.7279221l37.9999997 32h28.160157z" fill="#3a86ff" mask="url(#g)"/><path d="m63.6396103.08831175v31.63961035l-38.1837662 32.0538238h-25.4558441z" fill="#014d7e" mask="url(#g)"/></g><g transform="translate(171 32.272078)"><use fill="#3a86ff" xlink:href="#c"/><path d="m63.6396103 0v31.7279221l37.9999997 32h28.378907z" fill="#3a86ff" mask="url(#h)"/><path d="m63.6396103.08831175v31.63961035l-38.1837662 32.0538238h-25.4558441z" fill="#3c6" mask="url(#h)"/></g><g transform="translate(87)"><use fill="#3a86ff" xlink:href="#d"/><path d="m82.8557274 0h29.1530236l15.27047 19h-31.8198055z" fill="#3c6" mask="url(#i)"/><path d="m95.4594155 18.9823692 31.8198055.0176308-63.6396107 63.6396103.0176308-31.8286205z" fill="#014d7e" mask="url(#i)"/></g><g transform="translate(255)"><use fill="#3c6" xlink:href="#e"/><path d="m82.8557274 0h29.1530236l15.27047 19h-31.8198055z" fill="#3a86ff" mask="url(#j)"/><path d="m95.4594155 18.9823692 31.8198055.0176308-63.6396107 63.6396103.0176308-31.8286205z" fill="#014d7e" mask="url(#j)"/></g></g></svg>